<svg width="13" height="12" viewBox="0 0 13 12" fill="none" xmlns="http://www.w3.org/2000/svg">
<g clip-path="url(#clip0_1968_2641)">
<path d="M10.6079 5.39428C10.9415 5.10473 10.7632 4.55646 10.3231 4.51851L8.20474 4.33585C8.02032 4.31994 7.85977 4.20345 7.78745 4.03306L6.9606 2.08512C6.78814 1.67881 6.21223 1.67897 6.03999 2.08537L5.21266 4.03739C5.14029 4.20814 4.97936 4.32481 4.79457 4.34049L2.68081 4.51982C2.2401 4.55721 2.0614 5.10634 2.3957 5.39594L4.0019 6.78739C4.14218 6.90892 4.2036 7.09815 4.16144 7.2789L3.67921 9.34602C3.57873 9.77674 4.04584 10.1162 4.4245 9.88769L6.24163 8.79094C6.40053 8.69504 6.59947 8.69504 6.75837 8.79094L8.57741 9.88884C8.95579 10.1172 9.42268 9.77837 9.32285 9.34783L8.84299 7.27824C8.80116 7.09783 8.86248 6.90908 9.00234 6.78769L10.6079 5.39428ZM6.75852 7.85635C6.59956 7.76021 6.4004 7.76013 6.24136 7.85615L5.63508 8.22217C5.25635 8.45082 4.78912 8.11116 4.88977 7.68037L5.05136 6.98877C5.09358 6.80809 5.03227 6.6189 4.89211 6.49732L4.35197 6.02876C4.01834 5.73934 4.19637 5.19111 4.6364 5.15294L5.34969 5.09105C5.53441 5.07503 5.6951 4.9581 5.76716 4.78726L6.04009 4.14025C6.2119 3.73297 6.78893 3.73262 6.96123 4.13969L7.23766 4.79278C7.30985 4.96333 7.4704 5.08001 7.6549 5.09602L8.3686 5.15794C8.80863 5.19611 8.98666 5.74434 8.65303 6.03376L8.11289 6.50232C7.97273 6.6239 7.91142 6.81309 7.95364 6.99377L8.11494 7.68413C8.21563 8.1151 7.74801 8.45476 7.3693 8.22573L6.75852 7.85635Z" fill="#FCD400"/>
</g>
<defs>
<clipPath id="clip0_1968_2641">
<rect width="12" height="12" fill="white" transform="translate(0.5)"/>
</clipPath>
</defs>
</svg>
